<svg width="760" height="560" viewBox="0 0 760 560" fill="none" xmlns="http://www.w3.org/2000/svg">
  <defs>
    <linearGradient id="a" x1="0" y1="0" x2="760" y2="560"><stop stop-color="#171E32"/><stop offset="1" stop-color="#101625"/></linearGradient>
    <linearGradient id="b" x1="80" y1="460" x2="510" y2="120"><stop stop-color="#A855F7"/><stop offset="1" stop-color="#22D3EE"/></linearGradient>
  </defs>
  <rect x="10" y="10" width="740" height="540" rx="24" fill="url(#a)" stroke="rgba(255,255,255,0.10)"/>
  <rect x="56" y="70" width="648" height="64" rx="14" fill="rgba(255,255,255,0.04)"/>
  <rect x="56" y="162" width="648" height="344" rx="16" fill="rgba(255,255,255,0.03)"/>
  <rect x="82" y="190" width="212" height="128" rx="14" fill="rgba(124,58,237,0.16)"/>
  <rect x="316" y="190" width="176" height="128" rx="14" fill="rgba(59,130,246,0.14)"/>
  <rect x="514" y="190" width="164" height="128" rx="14" fill="rgba(16,185,129,0.14)"/>
  <rect x="82" y="342" width="596" height="138" rx="14" fill="rgba(255,255,255,0.04)"/>
  <path d="M108 442C180 390 230 390 286 344C334 304 392 304 452 264C506 228 562 238 650 192" stroke="url(#b)" stroke-width="6" stroke-linecap="round"/>
</svg>
